<svg xmlns="http://www.w3.org/2000/svg" x="0px" y="0px" width="32" height="32" viewBox="0 0 32 32">
<path d="M 9 3.5859375 L 5.34375 7.2421875 L 0.76757812 10.673828 L 1.0839844 11.398438 C 1.9409055 13.367071 4.2041291 16.789397 7.6835938 17.949219 L 8.5058594 18.222656 L 10.216797 14.802734 L 9.7070312 14.292969 C 9.5304149 14.116352 9.3604602 13.560847 9.4003906 12.9375 C 9.4402636 12.315046 9.7613167 11.651658 9.7441406 11.669922 C 9.7441406 11.669922 9.7441406 11.667969 9.7441406 11.667969 L 10.5 10.914062 L 14.585938 15 L 3 26.585938 L 3 29.414062 L 21.5 10.914062 L 22.255859 11.669922 C 22.238679 11.651662 22.559736 12.315046 22.599609 12.9375 C 22.639539 13.560847 22.469585 14.116352 22.292969 14.292969 L 21.783203 14.802734 L 23.494141 18.222656 L 24.316406 17.949219 C 27.795871 16.789397 30.059094 13.36707 30.916016 11.398438 L 31.232422 10.673828 L 26.65625 7.2421875 L 23 3.5859375 L 18.585938 8 L 19.292969 8.7070312 L 20.085938 9.5 L 16 13.585938 L 11.914062 9.5 L 13.414062 8 L 12.707031 7.2929688 L 9 3.5859375 z M 9 6.4140625 L 10.585938 8 L 8.2734375 10.3125 L 8.2558594 10.332031 C 7.6436838 11.014288 7.4658665 11.847441 7.4042969 12.808594 C 7.3587009 13.520383 7.5232049 14.283305 7.890625 14.982422 L 7.5625 15.636719 C 5.6327258 14.632603 4.111396 12.650295 3.3457031 11.240234 L 6.65625 8.7578125 L 9 6.4140625 z M 23 6.4140625 L 25.34375 8.7578125 L 28.654297 11.240234 C 27.888604 12.650295 26.367274 14.632603 24.4375 15.636719 L 24.109375 14.982422 C 24.476795 14.283305 24.641299 13.520383 24.595703 12.808594 C 24.534133 11.847441 24.356316 11.014288 23.744141 10.332031 L 23.726562 10.3125 L 21.414062 8 L 23 6.4140625 z M 18.414062 16 L 17 17.414062 L 29 29.414062 L 29 26.585938 L 18.414062 16 z M 16 18.757812 L 15.292969 19.464844 L 11.757812 23 L 15 26.242188 L 15 28.798828 L 17 30.798828 L 17 26.242188 L 20.242188 23 L 16 18.757812 z M 16 21.585938 L 17.414062 23 L 16 24.414062 L 14.585938 23 L 16 21.585938 z"></path>
</svg>